<?xml version="1.0" encoding="UTF-8"?>
<!DOCTYPE svg PUBLIC "-//W3C//DTD SVG 1.1//EN" "http://www.w3.org/Graphics/SVG/1.1/DTD/svg11.dtd">
<!-- Creator: CorelDRAW -->
<svg xmlns="http://www.w3.org/2000/svg" xml:space="preserve" width="30mm" height="30mm" version="1.1" style="shape-rendering:geometricPrecision; text-rendering:geometricPrecision; image-rendering:optimizeQuality; fill-rule:evenodd; clip-rule:evenodd"
viewBox="0 0 3000 3000"
 xmlns:xlink="http://www.w3.org/1999/xlink"
 xmlns:xodm="http://www.corel.com/coreldraw/odm/2003">
 <defs>
  <style type="text/css">
   <![CDATA[
    .fil1 {fill:url(#id0)}
    .fil0 {fill:url(#id1)}
   ]]>
  </style>
  <linearGradient id="id0" gradientUnits="userSpaceOnUse" x1="998.11" y1="1358.53" x2="3106.18" y2="1483.82">
   <stop offset="0" style="stop-opacity:1; stop-color:#2B2A29"/>
   <stop offset="0.341176" style="stop-opacity:1; stop-color:#949493"/>
   <stop offset="1" style="stop-opacity:1; stop-color:#FEFEFE"/>
  </linearGradient>
  <linearGradient id="id1" gradientUnits="userSpaceOnUse" xlink:href="#id0" x1="998.13" y1="1358.52" x2="3106.2" y2="1483.81">
  </linearGradient>
 </defs>
 <g id="Layer_x0020_1">
  <metadata id="CorelCorpID_0Corel-Layer"/>
  <g id="_2634143094720">
   <path class="fil0" d="M834.58 1624.71c20.97,-5.28 93.05,-5.81 167.12,-5.04l-2.99 -31.3c-14.98,-156.49 -32.11,-314.14 -44.74,-471.15 -5.27,11.97 -21.48,223.84 -24.27,255.32 -8.88,99.89 1.19,98.76 -45.14,98.62 -37.39,-0.11 -37.39,5.36 -52.61,-20.93l-22.63 -39.97c-3.14,-4.09 -1.75,-2.41 -4.32,-4.1 -7.82,13.08 -20.13,52.77 -27.31,60.4 -2.07,2.19 -6.89,3.64 -13.32,4.56 23.78,51.51 47.49,102.75 70.21,153.59zm226.4 -4.21c50.62,0.86 95.63,1.9 117.66,1.9 111.81,-0.01 236.71,-5.43 346.79,3.58 65.06,5.33 145.55,4.12 223.11,2.48l-36.97 -419.24c-2,-23 -6.08,-105.37 -12.02,-120.88l-39.63 334.21c-4.16,35.02 0.23,51.23 -24.12,52.53 -53.31,2.83 -59.16,2.12 -66.68,-16.52 -5.37,-13.3 -15.32,-44.67 -22.41,-53 -7.96,8.71 -22.46,40.83 -29.2,53.1 -7.13,13 -7.32,16.31 -26.84,16.5l-133.48 -1.62c-47.3,-0.46 -40.44,5.18 -61.38,-23.57 -5.67,4.47 -29.65,41.38 -35.49,50.32 -11.35,17.32 -18.86,41.67 -46.01,24.43 -6.49,-35.37 4.37,-102.31 2.78,-142.52 -0.41,0.45 -0.88,1.08 -1.12,1.42 -6.51,9.29 -10.58,25.15 -15.09,37.06 -4.61,12.17 -9.49,27.96 -14.54,38.98 -10.07,22.03 -56.53,5.6 -102.91,9.94 -2.91,6.06 -13.91,86.46 -22.45,150.9zm749.52 6.66c23.7,-0.44 46.6,-0.77 68.12,-0.77 59.52,0 119.41,1.35 178.61,1.39 31.66,0.03 19.88,-26.37 61.56,-22.42 18.71,1.78 63.22,-6.45 61.87,10.21 19.17,-47.53 37.61,-95.77 56.58,-143.74 -39.16,0.06 -78.32,0.08 -117.44,-0.08 -25.27,-0.11 -23.92,-9.24 -27.43,-28.92l-20.88 -116.86c-0.56,-3.23 -0.9,-7.3 -1.71,-10.72l-4.63 -10.07c-11.51,56.94 -18.88,122.28 -27.66,181.05 -2.28,15.25 -1.45,34.27 -22.51,31.64 -14.45,-1.81 -16.18,-18.93 -20.8,-31.81 -4.8,-13.42 -22.73,-68.77 -28.65,-75.51 -9.33,13.94 -16.11,51.28 -33.28,54.84 -14.21,2.95 -76.15,-0.25 -95.93,0.04 -7.31,53.08 -16.64,107.69 -25.82,161.73zm438.22 -184.12c12.99,-32.28 26.34,-64.36 40.44,-95.91 40.17,-89.9 76.64,-176.01 106.69,-270.06 48.2,-150.83 128.53,-487.3 -52.92,-578.42 -160.97,-80.83 -395.71,106.49 -537.86,177.69 -145.36,72.81 -294.8,118.76 -456.93,82.94 -7.92,-1.75 -146.67,-46.41 -138.72,-49.45 65.64,-1.01 135.73,9.01 204.9,7.9 177.03,-2.82 337.61,-42.31 451.8,-188.09 -228.2,141.46 -347.92,112.31 -581.53,9.94 -187.91,-82.35 -419.05,-139.37 -599.21,-3.52 -195.15,147.16 -152.61,356.71 -81.88,556.17 41.58,117.25 94.27,234.27 147.53,349.96l1.73 -0.04c20.37,-38.14 29.87,-94.99 55.4,-88.9 13.48,3.21 23.13,30.22 30.77,43.17 29.99,50.87 16.36,46.05 50.29,44.6 5.1,-13.93 37.13,-410.44 41.77,-462.43 1.68,-18.8 -2.39,-64.37 17.54,-67.89 17.09,-3.02 20.19,8.03 21.38,20.82l32.76 346.13c3.65,39.41 24.37,287.57 30.43,304.07 5.46,-38.85 10.85,-76.84 15.91,-115.44 5.2,-39.63 11.53,-25.06 109.22,-25.28l65.55 -174.18c4,-5.74 13.53,-10.52 23.81,-4.73 7.3,4.13 7.23,13.45 6.81,23.33l-5.96 171.25c8.22,-5.17 14.89,-17.82 20.21,-25.74 4.2,-6.26 11.87,-20.23 18.28,-23.35 22.87,-11.13 33,25.76 45.71,36.16l155.39 1.25c8.49,-17.83 17.72,-33.49 26.75,-50.97 6.25,-12.09 18.65,-43.02 32.19,-44.45 19.88,-2.1 26.12,30.07 31.84,44.31 24,59.74 13.63,52.09 44.94,51.36 11.06,-103.73 24.43,-207.81 36.69,-311.55 6.2,-52.43 12.32,-104.08 18.47,-156.46 2.01,-17.06 2.56,-66.83 16.71,-72.17 30.74,-11.59 26.06,39.34 27.67,57.61 9.33,106.78 19.21,213.01 28.15,319.33l28.48 318.15c8.43,-21.77 16.43,-95.77 21.05,-124.19 5.07,-31.19 -1.87,-40.67 35.85,-40.32 25.92,0.24 53.91,1.47 79.57,0.37 13.51,-16.19 29.45,-82.24 47.51,-85.74 21.97,-4.25 24.24,22.01 29.46,36.91 4.42,12.6 12.05,36.38 17.96,46.96 12.73,-56.58 19.33,-124.62 28.08,-182.61 4.67,-30.96 4.68,-83.88 33.81,-69.93 12.52,6 18.28,66.92 21.4,84.62 5.31,30.05 10.65,59.88 16.05,89.74 2.16,12.02 10.74,83.56 19.31,86.12 4.2,1.26 61.59,1.25 118.75,0.96z"/>
   <path class="fil1" d="M834.58 1624.71c104.88,270.15 145.53,603.2 317.78,834.37 135.99,182.5 198.93,-179.33 215.21,-257.99 16.31,-78.77 31.75,-158.36 52.04,-236.2 8.72,-33.41 52.2,-217.62 104.27,-129.77 45.02,75.97 77.58,357.09 111.21,464.26 20.08,63.97 53.13,141.43 92.47,195.79 58.92,81.41 111.65,55.57 164.93,-16.81 75.39,-102.39 122.93,-295.9 155.45,-420.11 40.78,-155.74 79.91,-290.39 132.72,-442.68 1.35,-16.66 -43.16,-8.43 -61.87,-10.21 -41.68,-3.95 -29.9,22.45 -61.56,22.42 -59.2,-0.04 -119.09,-1.39 -178.61,-1.39 -21.52,0 -44.42,0.33 -68.12,0.77 -4.2,24.76 -8.37,49.39 -12.3,73.71 -2.56,15.91 -1.57,49.21 -18.29,52.87 -26.3,5.73 -22.65,-26.21 -24.14,-43.34l-7.23 -81.94c-77.56,1.64 -158.05,2.85 -223.11,-2.48 -110.08,-9.01 -234.98,-3.59 -346.79,-3.58 -22.03,0 -67.04,-1.04 -117.66,-1.9 -4.84,36.51 -8.89,67.91 -10.24,77.77 -2.26,16.66 -0.65,45.52 -17.35,48.83 -25.16,4.98 -22.09,-25.72 -23.64,-42.33 -2.65,-28.3 -5.35,-56.69 -8.05,-85.1 -74.07,-0.77 -146.15,-0.24 -167.12,5.04z"/>
  </g>
 </g>
</svg>
